<?xml version="1.0" encoding="utf-8"?>
<!-- Generator: Adobe Illustrator 24.3.0, SVG Export Plug-In . SVG Version: 6.00 Build 0)  -->
<svg version="1.1" id="Layer_1" xmlns="http://www.w3.org/2000/svg" xmlns:xlink="http://www.w3.org/1999/xlink" x="0px" y="0px"
	 viewBox="0 0 471.11 64.4" style="enable-background:new 0 0 471.11 64.4;" xml:space="preserve">
<style type="text/css">
	.st0{fill:#D6C9F6;}
	.st1{clip-path:url(#XMLID_7_);}
	.st2{clip-path:url(#XMLID_9_);}
	.st3{fill:#FFFFFF;}
	.st4{fill:#8533C8;}
	.st5{fill:#8045D2;}
	.st6{fill:#FF9000;}
	.st7{fill:#378FFF;}
	.st8{fill:#5733AF;}
	.st9{fill-rule:evenodd;clip-rule:evenodd;fill:url(#SVGID_1_);}
	.st10{fill-rule:evenodd;clip-rule:evenodd;fill:#FFFFFF;}
	.st11{fill-rule:evenodd;clip-rule:evenodd;fill:url(#SVGID_2_);}
	.st12{fill-rule:evenodd;clip-rule:evenodd;fill:url(#SVGID_3_);}
	.st13{fill-rule:evenodd;clip-rule:evenodd;fill:url(#SVGID_4_);}
	.st14{fill-rule:evenodd;clip-rule:evenodd;fill:url(#SVGID_5_);}
	.st15{fill-rule:evenodd;clip-rule:evenodd;fill:url(#SVGID_6_);}
	.st16{fill-rule:evenodd;clip-rule:evenodd;fill:url(#SVGID_7_);}
	.st17{fill-rule:evenodd;clip-rule:evenodd;fill:url(#SVGID_8_);}
	.st18{fill-rule:evenodd;clip-rule:evenodd;fill:url(#SVGID_9_);}
	.st19{fill-rule:evenodd;clip-rule:evenodd;fill:url(#SVGID_10_);}
	.st20{fill-rule:evenodd;clip-rule:evenodd;fill:url(#SVGID_11_);}
	.st21{fill-rule:evenodd;clip-rule:evenodd;fill:url(#SVGID_12_);}
	.st22{fill-rule:evenodd;clip-rule:evenodd;fill:url(#SVGID_13_);}
	.st23{fill-rule:evenodd;clip-rule:evenodd;fill:url(#SVGID_14_);}
	.st24{fill-rule:evenodd;clip-rule:evenodd;fill:url(#SVGID_15_);}
	.st25{fill-rule:evenodd;clip-rule:evenodd;fill:url(#SVGID_16_);}
	.st26{fill:#006AB9;}
	.st27{fill:#565656;}
	.st28{fill:none;stroke:#000000;stroke-miterlimit:10;}
	.st29{fill:#686868;}
	.st30{fill:#FFFFFF;stroke:#272525;stroke-miterlimit:10;}
	.st31{fill:#9A9999;stroke:#FFFFFF;stroke-miterlimit:10;}
	.st32{fill:none;stroke:#FFFFFF;stroke-width:5;stroke-miterlimit:10;}
	.st33{clip-path:url(#XMLID_11_);}
	.st34{fill:#0070DC;}
	.st35{fill:none;stroke:#0070DC;stroke-width:4;stroke-linecap:round;stroke-miterlimit:10;}
	.st36{fill-rule:evenodd;clip-rule:evenodd;fill:url(#SVGID_19_);}
	.st37{fill-rule:evenodd;clip-rule:evenodd;fill:url(#SVGID_20_);}
	.st38{fill-rule:evenodd;clip-rule:evenodd;fill:url(#SVGID_21_);}
	.st39{fill-rule:evenodd;clip-rule:evenodd;fill:url(#SVGID_22_);}
	.st40{clip-path:url(#SVGID_24_);}
	.st41{fill-rule:evenodd;clip-rule:evenodd;fill:url(#SVGID_25_);}
	.st42{fill-rule:evenodd;clip-rule:evenodd;fill:url(#SVGID_26_);}
	.st43{fill-rule:evenodd;clip-rule:evenodd;fill:url(#SVGID_27_);}
	.st44{fill-rule:evenodd;clip-rule:evenodd;fill:url(#SVGID_28_);}
	.st45{opacity:0.55;}
	.st46{fill:none;}
</style>
<g>
	
		<linearGradient id="SVGID_1_" gradientUnits="userSpaceOnUse" x1="-53.0647" y1="2184.9736" x2="-53.7276" y2="2186.3354" gradientTransform="matrix(55.882 0 0 -39.995 3013.6311 87447.9062)">
		<stop  offset="0" style="stop-color:#BE0000"/>
		<stop  offset="0.3898" style="stop-color:#DE0000"/>
		<stop  offset="0.768" style="stop-color:#F60000"/>
		<stop  offset="1" style="stop-color:#FF0000"/>
	</linearGradient>
	<path class="st9" d="M76.17,60.09L31.65,15.08c-5.92-5.96-13.97-9.5-22.35-9.5H0l0.7,1.82l3.1,8.15l16.85,44.55H76.17z"/>
	<path class="st10" d="M27.61,43.2c0.09,0.65,0.6,1.21,1.25,1.3c9.22,1.44,18.17,5.25,25.96,11.52c0.05,0.05,0.09,0.05,0.19,0.05
		c0.05,0,0.14-0.05,0.19-0.09c0.09-0.09,0.09-0.28,0-0.37c-5.38-5.67-12.01-10.22-19.38-13.19l-2.27-0.93
		c-1.16-0.46-1.95-1.63-1.95-2.93c0.14-4.83,11.55-3.86,12.7-6.18l0.18-0.42c-2.36-2-5.15-3.53-8.21-4.37
		c-0.05,0.14-0.1,0.7,0.51,1.72c0.7,1.12-0.74,2.88-2.83,0.98l-0.19-0.14C18.39,15.93,6.8,23.29,0.68,7.36l3.11,8.12
		C9.86,25.89,25.85,26.99,27.61,43.2z"/>
	
		<linearGradient id="SVGID_2_" gradientUnits="userSpaceOnUse" x1="-37.1624" y1="2222.3013" x2="-37.1624" y2="2222.8735" gradientTransform="matrix(3.775 0 0 -4.141 178.5893 9234.6641)">
		<stop  offset="0" style="stop-color:#FFFFFF;stop-opacity:0"/>
		<stop  offset="0.512" style="stop-color:#E0E0E0;stop-opacity:0.262"/>
		<stop  offset="0.6655" style="stop-color:#C5C5C5;stop-opacity:0.549"/>
		<stop  offset="0.8241" style="stop-color:#B5B5B5;stop-opacity:0.805"/>
		<stop  offset="1" style="stop-color:#AFAFAF"/>
	</linearGradient>
	<path class="st11" d="M36.79,29.29c0.23,0.37,0.23,0.84,0.04,1.21c-0.19,0.38-0.58,0.64-1.1,0.64v3.8
		c1.67-0.46,3.57-0.79,5.15-1.12v-2.14C40.87,31.68,38.32,31.85,36.79,29.29L36.79,29.29z"/>
	
		<linearGradient id="SVGID_3_" gradientUnits="userSpaceOnUse" x1="-51.3372" y1="2201.0259" x2="-50.1103" y2="2201.0259" gradientTransform="matrix(17.654 0 0 -8.3885 937.0254 18513.6387)">
		<stop  offset="0" style="stop-color:#FFFFFF;stop-opacity:0"/>
		<stop  offset="0.0839" style="stop-color:#F1F1F1;stop-opacity:0.093"/>
		<stop  offset="0.2483" style="stop-color:#D4D4D4;stop-opacity:0.325"/>
		<stop  offset="0.4453" style="stop-color:#C0C0C0;stop-opacity:0.555"/>
		<stop  offset="0.7032" style="stop-color:#B3B3B3;stop-opacity:0.781"/>
		<stop  offset="1" style="stop-color:#AFAFAF"/>
	</linearGradient>
	<path class="st12" d="M30.72,44.83c8.53,1.62,16.83,5.34,24.06,11.15C38.6,42.18,31.28,44.64,30.72,44.83L30.72,44.83z"/>
	
		<linearGradient id="SVGID_4_" gradientUnits="userSpaceOnUse" x1="-51.7832" y1="2187.9253" x2="-50.7623" y2="2187.9253" gradientTransform="matrix(19.762 0 0 -26.31 1030.738 57589.6328)">
		<stop  offset="0" style="stop-color:#FFFFFF;stop-opacity:0"/>
		<stop  offset="0.2858" style="stop-color:#EDEDED;stop-opacity:0.282"/>
		<stop  offset="0.886" style="stop-color:#BDBDBD;stop-opacity:0.848"/>
		<stop  offset="1" style="stop-color:#AFAFAF"/>
	</linearGradient>
	<path class="st13" d="M0.68,7.39l3.11,8.13c6.07,10.41,22.07,11.52,23.83,27.73C25.81,22.53,16.76,25.6,7.03,16.21
		C4.52,14.4,2.39,11.8,0.68,7.39z"/>
	<g>
		<path class="st10" d="M64.3,36.71c0-7.47,7.55-13.23,18.76-13.23c11.16,0,18.76,5.76,18.76,12.94c0,3.19-1.43,5.85-4.13,8.04h6.65
			l-1.57,2.71c-1,1.71-2.23,2.76-4.89,2.7l-15.14,0.06C71.47,49.94,64.3,44.08,64.3,36.71L64.3,36.71z M83.01,43.94
			c6.12,0,11.35-3.05,11.35-7.23c0-4.19-5.18-7.23-11.35-7.23c-6.13,0-11.35,3.05-11.35,7.23C71.66,40.9,76.88,43.94,83.01,43.94
			L83.01,43.94z M114.5,45.1l-2.81,4.77h-7.36l12.3-21.25c0.95-1.67,2.37-3,5.13-3.29h2.75c2.8,0.29,4.18,1.57,5.13,3.29l12.3,21.25
			h-7.5l-2.9-4.77H114.5z M128.92,40.33l-5.46-9.9c-0.14-0.24-0.24-0.29-0.43-0.29c-0.19,0-0.29,0.05-0.43,0.29l-5.41,9.9H128.92z
			 M177.2,49.87h-6.78L151.3,33.81v16.07h-6.82V25.34h4.24c2.09,0.29,3.18,0.86,4.37,1.86l17.29,14.51V25.34h6.82V49.87z
			 M200.38,49.87h-6.82V30.79h-13.63v-5.45h34.08v5.45h-13.63 M218.1,45.1l-2.71,4.77h-7.36l12.3-21.25c0.95-1.67,2.37-3,5.13-3.29
			h2.75c2.8,0.29,4.18,1.57,5.13,3.29l12.3,21.25h-7.5l-3-4.77H218.1z M232.67,40.33l-5.46-9.9c-0.14-0.24-0.24-0.29-0.43-0.29
			c-0.19,0-0.29,0.05-0.43,0.29l-5.41,9.9H232.67L232.67,40.33z M247.34,47.98l1.66-5.28c4.75,1.52,9.78,2.14,14.34,2.14
			c7.45,0,9.3-0.85,9.3-1.81c0-0.38-0.24-0.67-0.85-0.86c-0.76-0.24-2.8-0.66-8.93-1.66c-6.74-1.09-9.83-1.67-12.06-2.71
			c-2.23-1.05-3.61-2.71-3.61-5.14c0-1.85,0.9-3.33,2.37-4.52c2.61-2,7.03-2.81,11.82-2.81c6.22,0,11.44,0.52,17.24,1.95l0.52,0.14
			l-1.38,5.14c-6.46-1.38-10.07-1.76-15-1.86c-3.47-0.05-5.84,0.24-7.12,0.62c-0.71,0.24-1,0.57-1,0.95c0,0.38,0.24,0.67,0.95,0.9
			c0.76,0.24,2.04,0.57,8.69,1.62c7.17,1.19,9.54,1.67,11.54,2.43c2.71,1.05,4.32,2.95,4.32,5.33c0,3-2.33,5.23-6.36,6.47
			c-2.47,0.76-5.84,1.19-9.59,1.19c-5.93,0.05-12.2-0.71-16.24-2.04C247.96,48.18,247.34,47.98,247.34,47.98z"/>
	</g>
</g>
<g>
	<path class="st3" d="M302.83,48.17l-6.28-21.97h1.5l3.2,11.31c0.9,3.17,2.03,7.25,2.43,9.2h0.06c0.35-1.67,1.69-5.97,2.65-9.23
		l3.33-11.27h1.47l-6.61,21.97H302.83z"/>
	<path class="st3" d="M319.11,40.3l-2.21,7.88h-1.43c0.95-2.81,5.25-18.78,6.31-21.97h1.77l6.55,21.97h-1.55l-2.24-7.88H319.11z
		 M325.91,38.99c-1.86-6.38-2.96-9.91-3.27-11.43h-0.06c-0.45,2.14-1.6,6.17-3.09,11.43H325.91z"/>
	<path class="st3" d="M350.62,42.27c-0.37,2.24-1.65,6.21-6.43,6.21c-5.76,0-6.96-5.79-6.96-11.51c0-5.83,1.91-11.06,7.18-11.06
		c4.68,0,5.85,3.87,6.12,6.17h-1.47c-0.3-1.79-1.21-4.82-4.69-4.82c-4.38,0-5.65,5.18-5.65,9.71c0,5.01,1.05,10.17,5.53,10.17
		c3.4,0,4.48-2.81,4.91-4.87H350.62z"/>
	<path class="st3" d="M361.48,40.3l-2.21,7.88h-1.43c0.95-2.81,5.25-18.78,6.31-21.97h1.77l6.55,21.97h-1.55l-2.24-7.88H361.48z
		 M368.28,38.99c-1.86-6.38-2.96-9.91-3.27-11.43h-0.06c-0.45,2.14-1.6,6.17-3.09,11.43H368.28z"/>
	<path class="st3" d="M381.67,27.51h-5.77v-1.31h12.96v1.31h-5.78v20.66h-1.41V27.51z"/>
	<path class="st3" d="M398.13,26.21v21.97h-1.4V26.21H398.13z"/>
	<path class="st3" d="M421.81,37c0,6.79-2.07,11.48-7.27,11.48c-4.89,0-7.13-4.32-7.13-11.4c0-6.72,2.36-11.17,7.27-11.17
		C419.57,25.91,421.81,29.96,421.81,37z M408.89,37.01c0,6.45,1.9,10.16,5.75,10.16c3.93,0,5.74-3.77,5.74-10.11
		c0-6.58-1.94-9.85-5.72-9.85C410.82,27.21,408.89,30.85,408.89,37.01z"/>
	<path class="st3" d="M431.1,48.17V26.21h1.99c8.52,17.27,9.52,19.2,9.89,20.11h0.03c-0.15-3.05-0.2-6.57-0.2-10.11v-10h1.43v21.97
		h-1.83c-8.96-18.19-9.65-19.7-10.04-20.58h-0.03c0.16,2.82,0.15,6.53,0.15,10.5v10.08H431.1z"/>
	<path class="st3" d="M454.44,42.48c0.3,2.94,2.08,4.66,4.81,4.66c2.66,0,4.47-1.42,4.47-4.52c0-2.7-1.04-3.99-4.67-5.46
		c-3.66-1.48-5.3-2.89-5.3-6.02c0-2.87,1.92-5.21,5.51-5.21c3.99,0,5.42,2.79,5.55,5.38h-1.41c-0.22-1.77-1.15-4.09-4.23-4.09
		c-2.71,0-3.95,1.66-3.95,3.79c0,2.43,1.14,3.55,4.41,4.85c4.4,1.75,5.58,3.65,5.58,6.63c0,3.55-2.14,5.92-6,5.92
		c-4.14,0-5.94-2.58-6.2-5.94H454.44z"/>
</g>
</svg>
